STARTFONT 2.1
FONT -Linotype-New Century Schoolbook-Medium-I-Normal--12-120-72-72-P-67-ISO8859-1
SIZE 12 72 72
FONTBOUNDINGBOX 14 16 -2 -3

STARTPROPERTIES 22
FONTNAME_REGISTRY "-"
FOUNDRY "Linotype"
FAMILY_NAME "New Century Schoolbook"
WEIGHT_NAME "Medium"
SLANT "I"
SETWIDTH_NAME "Normal"
ADD_STYLE_NAME ""
PIXEL_SIZE 12
POINT_SIZE 120
RESOLUTION_X 72
RESOLUTION_Y 72
SPACING "P"
CHARSET_REGISTRY "ISO8859"
CHARSET_ENCODING "1"
FULL_NAME "NewCenturySchlbk-Italic"
AVERAGE_WIDTH 67
WEIGHT 10
X_HEIGHT 6
QUAD_WIDTH 6
DEFAULT_CHAR 32
FONT_DESCENT 3
FONT_ASCENT 11
ENDPROPERTIES

CHARS 190

STARTCHAR space
ENCODING 32
SWIDTH 278 0
DWIDTH 3 0
BBX 1 1 0 0
BITMAP
00
ENDCHAR

STARTCHAR exclam
ENCODING 33
SWIDTH 333 0
DWIDTH 4 0
BBX 3 9 0 0
BITMAP
20
20
20
20
40
40
40
00
80
ENDCHAR

STARTCHAR quotedbl
ENCODING 34
SWIDTH 400 0
DWIDTH 5 0
BBX 4 3 1 6
BITMAP
50
A0
A0
ENDCHAR

STARTCHAR numbersign
ENCODING 35
SWIDTH 556 0
DWIDTH 7 0
BBX 6 8 1 0
BITMAP
28
28
FC
28
FC
50
50
50
ENDCHAR

STARTCHAR dollar
ENCODING 36
SWIDTH 556 0
DWIDTH 6 0
BBX 6 11 0 -1
BITMAP
04
3C
6C
4C
50
38
14
A4
AC
F8
40
ENDCHAR

STARTCHAR percent
ENCODING 37
SWIDTH 833 0
DWIDTH 10 0
BBX 9 9 1 0
BITMAP
3100
4A00
8C00
9400
6B00
1480
1480
2480
4300
ENDCHAR

STARTCHAR ampersand
ENCODING 38
SWIDTH 852 0
DWIDTH 10 0
BBX 9 9 0 0
BITMAP
0C00
1200
1600
1B80
7100
DA00
8C00
CC80
7700
ENDCHAR

STARTCHAR quoteright
ENCODING 39
SWIDTH 204 0
DWIDTH 2 0
BBX 2 3 0 6
BITMAP
40
40
80
ENDCHAR

STARTCHAR parenleft
ENCODING 40
SWIDTH 333 0
DWIDTH 4 0
BBX 4 11 0 -2
BITMAP
10
20
40
40
80
80
80
80
80
80
40
ENDCHAR

STARTCHAR parenright
ENCODING 41
SWIDTH 333 0
DWIDTH 4 0
BBX 4 10 0 -1
BITMAP
20
10
10
10
10
10
20
20
40
80
ENDCHAR

STARTCHAR asterisk
ENCODING 42
SWIDTH 500 0
DWIDTH 6 0
BBX 5 5 0 4
BITMAP
20
A8
70
70
A8
ENDCHAR

STARTCHAR plus
ENCODING 43
SWIDTH 606 0
DWIDTH 7 0
BBX 7 7 0 0
BITMAP
10
10
10
FE
10
10
10
ENDCHAR

STARTCHAR comma
ENCODING 44
SWIDTH 278 0
DWIDTH 3 0
BBX 2 3 0 -2
BITMAP
40
40
80
ENDCHAR

STARTCHAR minus
ENCODING 45
SWIDTH 606 0
DWIDTH 7 0
BBX 6 1 0 2
BITMAP
FC
ENDCHAR

STARTCHAR period
ENCODING 46
SWIDTH 278 0
DWIDTH 3 0
BBX 1 1 0 0
BITMAP
80
ENDCHAR

STARTCHAR slash
ENCODING 47
SWIDTH 606 0
DWIDTH 7 0
BBX 4 10 2 -1
BITMAP
10
10
20
20
20
40
40
40
80
80
ENDCHAR

STARTCHAR zero
ENCODING 48
SWIDTH 556 0
DWIDTH 7 0
BBX 6 9 0 0
BITMAP
38
64
44
C4
84
8C
88
98
70
ENDCHAR

STARTCHAR one
ENCODING 49
SWIDTH 556 0
DWIDTH 7 0
BBX 5 9 1 0
BITMAP
08
30
10
10
10
20
20
20
F8
ENDCHAR

STARTCHAR two
ENCODING 50
SWIDTH 556 0
DWIDTH 7 0
BBX 7 9 0 0
BITMAP
1C
26
46
64
0C
18
20
44
FC
ENDCHAR

STARTCHAR three
ENCODING 51
SWIDTH 556 0
DWIDTH 7 0
BBX 6 9 0 0
BITMAP
38
44
64
0C
38
08
CC
88
70
ENDCHAR

STARTCHAR four
ENCODING 52
SWIDTH 556 0
DWIDTH 7 0
BBX 6 9 0 0
BITMAP
04
0C
18
28
48
88
FC
10
38
ENDCHAR

STARTCHAR five
ENCODING 53
SWIDTH 556 0
DWIDTH 7 0
BBX 6 9 0 0
BITMAP
24
3C
20
78
4C
0C
CC
98
70
ENDCHAR

STARTCHAR six
ENCODING 54
SWIDTH 556 0
DWIDTH 7 0
BBX 6 9 0 0
BITMAP
1C
24
40
F8
C8
88
88
98
70
ENDCHAR

STARTCHAR seven
ENCODING 55
SWIDTH 556 0
DWIDTH 7 0
BBX 6 9 1 0
BITMAP
7C
C8
88
10
30
20
60
40
40
ENDCHAR

STARTCHAR eight
ENCODING 56
SWIDTH 556 0
DWIDTH 7 0
BBX 6 9 0 0
BITMAP
38
44
44
64
78
8C
84
84
78
ENDCHAR

STARTCHAR nine
ENCODING 57
SWIDTH 556 0
DWIDTH 7 0
BBX 6 9 0 0
BITMAP
38
64
44
44
4C
3C
04
C8
70
ENDCHAR

STARTCHAR colon
ENCODING 58
SWIDTH 278 0
DWIDTH 3 0
BBX 3 6 1 0
BITMAP
60
00
00
00
00
80
ENDCHAR

STARTCHAR semicolon
ENCODING 59
SWIDTH 278 0
DWIDTH 3 0
BBX 3 8 0 -2
BITMAP
20
00
00
00
00
40
40
80
ENDCHAR

STARTCHAR less
ENCODING 60
SWIDTH 606 0
DWIDTH 7 0
BBX 6 6 0 0
BITMAP
04
38
C0
C0
38
04
ENDCHAR

STARTCHAR equal
ENCODING 61
SWIDTH 606 0
DWIDTH 7 0
BBX 6 4 0 1
BITMAP
FC
00
00
FC
ENDCHAR

STARTCHAR greater
ENCODING 62
SWIDTH 606 0
DWIDTH 7 0
BBX 6 6 1 0
BITMAP
80
70
0C
0C
70
80
ENDCHAR

STARTCHAR question
ENCODING 63
SWIDTH 444 0
DWIDTH 5 0
BBX 4 9 1 0
BITMAP
60
90
90
20
40
A0
C0
00
80
ENDCHAR

STARTCHAR at
ENCODING 64
SWIDTH 747 0
DWIDTH 9 0
BBX 8 9 0 0
BITMAP
3C
43
9D
B5
A5
AD
B7
42
3C
ENDCHAR

STARTCHAR A
ENCODING 65
SWIDTH 704 0
DWIDTH 8 0
BBX 9 9 0 0
BITMAP
0400
0400
0E00
1200
1200
3E00
2300
4300
E780
ENDCHAR

STARTCHAR B
ENCODING 66
SWIDTH 722 0
DWIDTH 9 0
BBX 8 9 0 0
BITMAP
3E
11
11
31
3E
21
21
63
FE
ENDCHAR

STARTCHAR C
ENCODING 67
SWIDTH 722 0
DWIDTH 9 0
BBX 8 9 0 0
BITMAP
1D
23
41
C1
C0
C0
C2
46
3C
ENDCHAR

STARTCHAR D
ENCODING 68
SWIDTH 778 0
DWIDTH 9 0
BBX 9 9 0 0
BITMAP
3F00
1180
1080
1080
2080
2180
2100
6200
FC00
ENDCHAR

STARTCHAR E
ENCODING 69
SWIDTH 722 0
DWIDTH 9 0
BBX 9 9 0 0
BITMAP
3F80
1080
1280
3400
3C00
2400
2100
6300
FE00
ENDCHAR

STARTCHAR F
ENCODING 70
SWIDTH 667 0
DWIDTH 8 0
BBX 9 9 0 0
BITMAP
3F80
1080
1280
3400
3C00
2400
2400
6000
F000
ENDCHAR

STARTCHAR G
ENCODING 71
SWIDTH 778 0
DWIDTH 9 0
BBX 9 9 0 0
BITMAP
1F00
3300
6100
C000
C780
C200
C200
C600
7C00
ENDCHAR

STARTCHAR H
ENCODING 72
SWIDTH 833 0
DWIDTH 10 0
BBX 11 9 0 0
BITMAP
3DE0
1080
1080
1080
3F80
2100
2100
2100
F780
ENDCHAR

STARTCHAR I
ENCODING 73
SWIDTH 407 0
DWIDTH 5 0
BBX 6 9 0 0
BITMAP
3C
10
10
10
30
20
20
20
F0
ENDCHAR

STARTCHAR J
ENCODING 74
SWIDTH 611 0
DWIDTH 7 0
BBX 8 9 0 0
BITMAP
0F
04
04
04
08
08
C8
98
F0
ENDCHAR

STARTCHAR K
ENCODING 75
SWIDTH 741 0
DWIDTH 9 0
BBX 10 9 0 0
BITMAP
3DC0
1100
1200
1400
3C00
2400
2200
6200
F780
ENDCHAR

STARTCHAR L
ENCODING 76
SWIDTH 667 0
DWIDTH 8 0
BBX 8 9 0 0
BITMAP
3C
10
10
10
20
20
21
63
FE
ENDCHAR

STARTCHAR M
ENCODING 77
SWIDTH 944 0
DWIDTH 11 0
BBX 12 9 0 0
BITMAP
3870
18E0
28C0
2940
2B40
2A80
4C80
4C80
EBC0
ENDCHAR

STARTCHAR N
ENCODING 78
SWIDTH 815 0
DWIDTH 11 0
BBX 11 9 1 0
BITMAP
30E0
1840
1840
2480
2480
2280
4300
4100
E100
ENDCHAR

STARTCHAR O
ENCODING 79
SWIDTH 778 0
DWIDTH 9 0
BBX 8 9 0 0
BITMAP
1E
23
41
81
81
81
82
C4
78
ENDCHAR

STARTCHAR P
ENCODING 80
SWIDTH 667 0
DWIDTH 8 0
BBX 8 9 0 0
BITMAP
3F
11
11
13
3E
20
20
60
F0
ENDCHAR

STARTCHAR Q
ENCODING 81
SWIDTH 778 0
DWIDTH 9 0
BBX 8 12 0 -3
BITMAP
1E
23
41
81
81
B9
C9
CA
7C
09
09
06
ENDCHAR

STARTCHAR R
ENCODING 82
SWIDTH 741 0
DWIDTH 9 0
BBX 9 9 0 0
BITMAP
3F00
1080
1080
1080
3F00
2200
2200
6280
F300
ENDCHAR

STARTCHAR S
ENCODING 83
SWIDTH 667 0
DWIDTH 8 0
BBX 8 9 0 0
BITMAP
1F
22
62
20
1C
86
82
C6
BC
ENDCHAR

STARTCHAR T
ENCODING 84
SWIDTH 685 0
DWIDTH 8 0
BBX 8 9 0 0
BITMAP
7F
49
91
92
10
10
20
20
F8
ENDCHAR

STARTCHAR U
ENCODING 85
SWIDTH 815 0
DWIDTH 10 0
BBX 9 9 1 0
BITMAP
F380
6100
4100
4100
4200
8200
8200
C400
7800
ENDCHAR

STARTCHAR V
ENCODING 86
SWIDTH 704 0
DWIDTH 8 0
BBX 9 9 0 0
BITMAP
F380
4100
4200
2200
2400
2800
2800
1000
1000
ENDCHAR

STARTCHAR W
ENCODING 87
SWIDTH 926 0
DWIDTH 11 0
BBX 11 9 1 0
BITMAP
EEE0
4440
4440
4480
6E80
3300
3300
2200
2200
ENDCHAR

STARTCHAR X
ENCODING 88
SWIDTH 704 0
DWIDTH 8 0
BBX 10 9 0 0
BITMAP
3DC0
1180
0B00
0E00
0C00
1C00
3200
6200
F780
ENDCHAR

STARTCHAR Y
ENCODING 89
SWIDTH 685 0
DWIDTH 8 0
BBX 9 9 0 0
BITMAP
F780
2200
2400
2800
1000
1000
1000
3000
7800
ENDCHAR

STARTCHAR Z
ENCODING 90
SWIDTH 667 0
DWIDTH 8 0
BBX 8 9 0 0
BITMAP
3F
22
46
0C
18
11
22
46
FE
ENDCHAR

STARTCHAR bracketleft
ENCODING 91
SWIDTH 333 0
DWIDTH 4 0
BBX 5 11 0 -2
BITMAP
38
20
20
20
40
40
40
40
80
80
E0
ENDCHAR

STARTCHAR backslash
ENCODING 92
SWIDTH 606 0
DWIDTH 7 0
BBX 5 9 1 0
BITMAP
80
40
40
20
20
10
10
08
08
ENDCHAR

STARTCHAR bracketright
ENCODING 93
SWIDTH 333 0
DWIDTH 4 0
BBX 5 11 0 -2
BITMAP
38
08
10
10
10
10
20
20
20
20
E0
ENDCHAR

STARTCHAR asciicircum
ENCODING 94
SWIDTH 606 0
DWIDTH 7 0
BBX 6 5 1 4
BITMAP
30
30
48
48
84
ENDCHAR

STARTCHAR underscore
ENCODING 95
SWIDTH 500 0
DWIDTH 6 0
BBX 6 1 0 -1
BITMAP
FC
ENDCHAR

STARTCHAR quoteleft
ENCODING 96
SWIDTH 204 0
DWIDTH 2 0
BBX 2 3 1 6
BITMAP
40
80
C0
ENDCHAR

STARTCHAR a
ENCODING 97
SWIDTH 574 0
DWIDTH 7 0
BBX 6 6 0 0
BITMAP
34
48
88
88
94
6C
ENDCHAR

STARTCHAR b
ENCODING 98
SWIDTH 556 0
DWIDTH 7 0
BBX 5 9 0 0
BITMAP
60
20
40
70
48
88
88
98
F0
ENDCHAR

STARTCHAR c
ENCODING 99
SWIDTH 444 0
DWIDTH 5 0
BBX 5 6 0 0
BITMAP
30
48
98
80
88
70
ENDCHAR

STARTCHAR d
ENCODING 100
SWIDTH 611 0
DWIDTH 7 0
BBX 7 9 0 0
BITMAP
06
02
04
34
4C
88
8A
9C
6C
ENDCHAR

STARTCHAR e
ENCODING 101
SWIDTH 444 0
DWIDTH 5 0
BBX 5 6 0 0
BITMAP
38
48
B0
C0
88
70
ENDCHAR

STARTCHAR f
ENCODING 102
SWIDTH 333 0
DWIDTH 4 0
BBX 6 12 0 -3
BITMAP
0C
10
10
78
20
20
20
60
40
40
C0
C0
ENDCHAR

STARTCHAR g
ENCODING 103
SWIDTH 537 0
DWIDTH 6 0
BBX 7 9 0 -3
BITMAP
3E
24
24
7C
40
78
84
84
78
ENDCHAR

STARTCHAR h
ENCODING 104
SWIDTH 611 0
DWIDTH 7 0
BBX 7 9 0 0
BITMAP
70
20
20
3C
44
48
48
8A
8C
ENDCHAR

STARTCHAR i
ENCODING 105
SWIDTH 333 0
DWIDTH 4 0
BBX 3 9 0 0
BITMAP
20
00
00
C0
40
40
80
A0
C0
ENDCHAR

STARTCHAR j
ENCODING 106
SWIDTH 315 0
DWIDTH 4 0
BBX 6 12 -1 -3
BITMAP
04
00
00
18
08
08
10
10
10
10
20
E0
ENDCHAR

STARTCHAR k
ENCODING 107
SWIDTH 556 0
DWIDTH 7 0
BBX 6 9 0 0
BITMAP
70
20
20
3C
64
48
70
94
98
ENDCHAR

STARTCHAR l
ENCODING 108
SWIDTH 333 0
DWIDTH 4 0
BBX 3 9 0 0
BITMAP
60
20
20
40
40
40
80
A0
C0
ENDCHAR

STARTCHAR m
ENCODING 109
SWIDTH 889 0
DWIDTH 11 0
BBX 10 6 0 0
BITMAP
FB80
2480
4C80
4900
8940
9180
ENDCHAR

STARTCHAR n
ENCODING 110
SWIDTH 611 0
DWIDTH 7 0
BBX 7 6 0 0
BITMAP
F8
24
44
48
8A
8C
ENDCHAR

STARTCHAR o
ENCODING 111
SWIDTH 500 0
DWIDTH 6 0
BBX 5 6 0 0
BITMAP
30
48
88
88
90
60
ENDCHAR

STARTCHAR p
ENCODING 112
SWIDTH 574 0
DWIDTH 7 0
BBX 7 9 0 -3
BITMAP
3E
12
22
22
24
38
40
40
E0
ENDCHAR

STARTCHAR q
ENCODING 113
SWIDTH 556 0
DWIDTH 7 0
BBX 6 9 0 -3
BITMAP
34
4C
88
88
98
70
10
10
38
ENDCHAR

STARTCHAR r
ENCODING 114
SWIDTH 444 0
DWIDTH 5 0
BBX 5 6 0 0
BITMAP
D8
60
40
40
80
80
ENDCHAR

STARTCHAR s
ENCODING 115
SWIDTH 444 0
DWIDTH 5 0
BBX 5 6 0 0
BITMAP
30
48
20
10
90
60
ENDCHAR

STARTCHAR t
ENCODING 116
SWIDTH 352 0
DWIDTH 4 0
BBX 4 8 0 0
BITMAP
20
40
F0
40
40
80
A0
C0
ENDCHAR

STARTCHAR u
ENCODING 117
SWIDTH 611 0
DWIDTH 7 0
BBX 6 6 0 0
BITMAP
CC
48
48
90
94
F8
ENDCHAR

STARTCHAR v
ENCODING 118
SWIDTH 519 0
DWIDTH 6 0
BBX 5 6 0 0
BITMAP
C8
48
48
88
90
E0
ENDCHAR

STARTCHAR w
ENCODING 119
SWIDTH 778 0
DWIDTH 9 0
BBX 8 6 0 0
BITMAP
ED
29
49
49
5A
6C
ENDCHAR

STARTCHAR x
ENCODING 120
SWIDTH 500 0
DWIDTH 6 0
BBX 6 6 0 0
BITMAP
6C
90
10
10
30
CC
ENDCHAR

STARTCHAR y
ENCODING 121
SWIDTH 500 0
DWIDTH 6 0
BBX 6 9 0 -3
BITMAP
44
24
14
14
18
18
10
10
E0
ENDCHAR

STARTCHAR z
ENCODING 122
SWIDTH 463 0
DWIDTH 6 0
BBX 5 6 0 0
BITMAP
78
88
10
20
48
F0
ENDCHAR

STARTCHAR braceleft
ENCODING 123
SWIDTH 333 0
DWIDTH 4 0
BBX 4 11 1 -2
BITMAP
30
20
20
40
40
80
40
40
40
40
60
ENDCHAR

STARTCHAR bar
ENCODING 124
SWIDTH 606 0
DWIDTH 7 0
BBX 1 9 3 0
BITMAP
80
80
80
80
80
80
80
80
80
ENDCHAR

STARTCHAR braceright
ENCODING 125
SWIDTH 333 0
DWIDTH 4 0
BBX 4 11 0 -2
BITMAP
60
20
20
20
20
10
20
20
40
40
C0
ENDCHAR

STARTCHAR asciitilde
ENCODING 126
SWIDTH 606 0
DWIDTH 7 0
BBX 6 2 0 2
BITMAP
64
98
ENDCHAR

STARTCHAR exclamdown
ENCODING 161
SWIDTH 333 0
DWIDTH 4 0
BBX 3 9 0 -3
BITMAP
20
00
40
40
40
80
80
80
80
ENDCHAR

STARTCHAR cent
ENCODING 162
SWIDTH 556 0
DWIDTH 7 0
BBX 5 8 1 -1
BITMAP
08
38
58
98
A0
A8
70
40
ENDCHAR

STARTCHAR sterling
ENCODING 163
SWIDTH 556 0
DWIDTH 7 0
BBX 7 9 0 0
BITMAP
1C
32
24
20
78
20
20
E2
DC
ENDCHAR

STARTCHAR currency
ENCODING 164
SWIDTH 556 0
DWIDTH 7 0
BBX 6 6 1 1
BITMAP
B4
48
84
84
48
B4
ENDCHAR

STARTCHAR yen
ENCODING 165
SWIDTH 556 0
DWIDTH 7 0
BBX 7 9 0 0
BITMAP
EE
44
28
30
F8
20
F8
20
F8
ENDCHAR

STARTCHAR brokenbar
ENCODING 166
SWIDTH 606 0
DWIDTH 7 0
BBX 1 9 3 0
BITMAP
80
80
80
80
00
80
80
80
80
ENDCHAR

STARTCHAR section
ENCODING 167
SWIDTH 500 0
DWIDTH 6 0
BBX 6 12 0 -3
BITMAP
18
24
24
30
58
48
48
30
20
90
90
60
ENDCHAR

STARTCHAR dieresis
ENCODING 168
SWIDTH 333 0
DWIDTH 4 0
BBX 3 1 1 6
BITMAP
A0
ENDCHAR

STARTCHAR copyright
ENCODING 169
SWIDTH 747 0
DWIDTH 9 0
BBX 9 8 0 0
BITMAP
3E00
4100
9E80
A280
A080
A280
5D00
3E00
ENDCHAR

STARTCHAR ordfeminine
ENCODING 170
SWIDTH 422 0
DWIDTH 5 0
BBX 5 5 1 4
BITMAP
60
A8
F0
00
E0
ENDCHAR

STARTCHAR guillemotleft
ENCODING 171
SWIDTH 426 0
DWIDTH 5 0
BBX 5 4 0 1
BITMAP
28
50
A0
50
ENDCHAR

STARTCHAR logicalnot
ENCODING 172
SWIDTH 606 0
DWIDTH 7 0
BBX 6 4 1 0
BITMAP
FC
04
04
04
ENDCHAR

STARTCHAR hyphen
ENCODING 173
SWIDTH 333 0
DWIDTH 4 0
BBX 3 1 0 2
BITMAP
E0
ENDCHAR

STARTCHAR registered
ENCODING 174
SWIDTH 747 0
DWIDTH 9 0
BBX 9 8 0 0
BITMAP
3E00
4100
BC80
9680
9C80
9480
7700
3E00
ENDCHAR

STARTCHAR macron
ENCODING 175
SWIDTH 333 0
DWIDTH 4 0
BBX 4 1 1 7
BITMAP
F0
ENDCHAR

STARTCHAR degree
ENCODING 176
SWIDTH 400 0
DWIDTH 7 0
BBX 4 3 2 5
BITMAP
60
90
60
ENDCHAR

STARTCHAR plusminus
ENCODING 177
SWIDTH 606 0
DWIDTH 7 0
BBX 7 9 0 0
BITMAP
10
10
10
FE
10
10
10
00
FE
ENDCHAR

STARTCHAR twosuperior
ENCODING 178
SWIDTH 333 0
DWIDTH 4 0
BBX 4 5 -1 4
BITMAP
30
50
20
50
E0
ENDCHAR

STARTCHAR threesuperior
ENCODING 179
SWIDTH 333 0
DWIDTH 4 0
BBX 4 5 -1 4
BITMAP
70
50
30
90
E0
ENDCHAR

STARTCHAR acute
ENCODING 180
SWIDTH 333 0
DWIDTH 4 0
BBX 3 2 2 6
BITMAP
60
80
ENDCHAR

STARTCHAR mu
ENCODING 181
SWIDTH 611 0
DWIDTH 7 0
BBX 6 9 1 -3
BITMAP
88
88
88
88
8C
FC
80
80
80
ENDCHAR

STARTCHAR paragraph
ENCODING 182
SWIDTH 650 0
DWIDTH 8 0
BBX 7 12 1 -3
BITMAP
7E
D4
D4
D4
68
28
28
28
50
50
50
F0
ENDCHAR

STARTCHAR periodcentered
ENCODING 183
SWIDTH 278 0
DWIDTH 6 0
BBX 1 1 3 3
BITMAP
80
ENDCHAR

STARTCHAR cedilla
ENCODING 184
SWIDTH 333 0
DWIDTH 4 0
BBX 3 3 0 -2
BITMAP
40
20
E0
ENDCHAR

STARTCHAR onesuperior
ENCODING 185
SWIDTH 333 0
DWIDTH 4 0
BBX 3 5 -2 4
BITMAP
C0
40
40
40
E0
ENDCHAR

STARTCHAR ordmasculine
ENCODING 186
SWIDTH 372 0
DWIDTH 4 0
BBX 3 5 1 4
BITMAP
60
A0
C0
00
E0
ENDCHAR

STARTCHAR guillemotright
ENCODING 187
SWIDTH 426 0
DWIDTH 5 0
BBX 5 4 0 1
BITMAP
A0
50
28
50
ENDCHAR

STARTCHAR onequarter
ENCODING 188
SWIDTH 834 0
DWIDTH 10 0
BBX 9 9 1 0
BITMAP
C200
4200
4400
4400
E880
0900
1300
1780
2100
ENDCHAR

STARTCHAR onehalf
ENCODING 189
SWIDTH 834 0
DWIDTH 10 0
BBX 9 9 1 0
BITMAP
C200
4200
4400
4400
E980
0A80
1100
1280
2700
ENDCHAR

STARTCHAR threequarters
ENCODING 190
SWIDTH 834 0
DWIDTH 10 0
BBX 10 9 2 0
BITMAP
7100
5100
3200
9200
E440
0480
0980
0BC0
1080
ENDCHAR

STARTCHAR questiondown
ENCODING 191
SWIDTH 444 0
DWIDTH 5 0
BBX 4 9 0 -3
BITMAP
20
00
20
50
20
40
90
90
60
ENDCHAR

STARTCHAR Agrave
ENCODING 192
SWIDTH 704 0
DWIDTH 8 0
BBX 9 12 0 0
BITMAP
0400
0200
0000
0400
0400
0E00
1200
1200
3E00
2300
4300
E780
ENDCHAR

STARTCHAR Aacute
ENCODING 193
SWIDTH 704 0
DWIDTH 8 0
BBX 9 12 0 0
BITMAP
0300
0400
0000
0400
0400
0E00
1200
1200
3E00
2300
4300
E780
ENDCHAR

STARTCHAR Acircumflex
ENCODING 194
SWIDTH 704 0
DWIDTH 8 0
BBX 9 12 0 0
BITMAP
0600
0A00
0000
0400
0400
0E00
1200
1200
3E00
2300
4300
E780
ENDCHAR

STARTCHAR Atilde
ENCODING 195
SWIDTH 704 0
DWIDTH 8 0
BBX 9 12 0 0
BITMAP
0D00
0B00
0000
0400
0400
0E00
1200
1200
3E00
2300
4300
E780
ENDCHAR

STARTCHAR Adieresis
ENCODING 196
SWIDTH 704 0
DWIDTH 8 0
BBX 9 11 0 0
BITMAP
0500
0000
0400
0400
0E00
1200
1200
3E00
2300
4300
E780
ENDCHAR

STARTCHAR Aring
ENCODING 197
SWIDTH 704 0
DWIDTH 8 0
BBX 9 13 0 0
BITMAP
0300
0500
0600
0000
0400
0400
0E00
1200
1200
3E00
2300
4300
E780
ENDCHAR

STARTCHAR AE
ENCODING 198
SWIDTH 870 0
DWIDTH 10 0
BBX 12 9 0 0
BITMAP
0FF0
0520
0B00
0A40
1380
3E80
6620
4440
EFC0
ENDCHAR

STARTCHAR Ccedilla
ENCODING 199
SWIDTH 722 0
DWIDTH 9 0
BBX 8 12 0 -3
BITMAP
1D
23
41
C1
C0
C0
C2
46
3C
10
08
30
ENDCHAR

STARTCHAR Egrave
ENCODING 200
SWIDTH 722 0
DWIDTH 9 0
BBX 9 12 0 0
BITMAP
0800
0400
0000
3F80
1080
1280
3400
3C00
2400
2100
6300
FE00
ENDCHAR

STARTCHAR Eacute
ENCODING 201
SWIDTH 722 0
DWIDTH 9 0
BBX 9 12 0 0
BITMAP
0300
0400
0000
3F80
1080
1280
3400
3C00
2400
2100
6300
FE00
ENDCHAR

STARTCHAR Ecircumflex
ENCODING 202
SWIDTH 722 0
DWIDTH 9 0
BBX 9 12 0 0
BITMAP
0600
0A00
0000
3F80
1080
1280
3400
3C00
2400
2100
6300
FE00
ENDCHAR

STARTCHAR Edieresis
ENCODING 203
SWIDTH 722 0
DWIDTH 9 0
BBX 9 11 0 0
BITMAP
0A00
0000
3F80
1080
1280
3400
3C00
2400
2100
6300
FE00
ENDCHAR

STARTCHAR Igrave
ENCODING 204
SWIDTH 407 0
DWIDTH 5 0
BBX 6 12 0 0
BITMAP
20
10
00
3C
10
10
10
30
20
20
20
F0
ENDCHAR

STARTCHAR Iacute
ENCODING 205
SWIDTH 407 0
DWIDTH 5 0
BBX 6 12 0 0
BITMAP
0C
10
00
3C
10
10
10
30
20
20
20
F0
ENDCHAR

STARTCHAR Icircumflex
ENCODING 206
SWIDTH 407 0
DWIDTH 5 0
BBX 6 12 0 0
BITMAP
18
28
00
3C
10
10
10
30
20
20
20
F0
ENDCHAR

STARTCHAR Idieresis
ENCODING 207
SWIDTH 407 0
DWIDTH 5 0
BBX 6 11 0 0
BITMAP
28
00
3C
10
10
10
30
20
20
20
F0
ENDCHAR

STARTCHAR Eth
ENCODING 208
SWIDTH 778 0
DWIDTH 9 0
BBX 9 9 0 0
BITMAP
3F00
1180
1080
7C80
2080
2180
2100
2300
FC00
ENDCHAR

STARTCHAR Ntilde
ENCODING 209
SWIDTH 815 0
DWIDTH 11 0
BBX 11 12 1 0
BITMAP
0D00
0B00
0000
30E0
1840
1840
2480
2480
2280
4300
4100
E100
ENDCHAR

STARTCHAR Ograve
ENCODING 210
SWIDTH 778 0
DWIDTH 9 0
BBX 8 12 0 0
BITMAP
08
04
00
1E
23
41
81
81
81
82
C4
78
ENDCHAR

STARTCHAR Oacute
ENCODING 211
SWIDTH 778 0
DWIDTH 9 0
BBX 8 12 0 0
BITMAP
06
08
00
1E
23
41
81
81
81
82
C4
78
ENDCHAR

STARTCHAR Ocircumflex
ENCODING 212
SWIDTH 778 0
DWIDTH 9 0
BBX 8 12 0 0
BITMAP
0C
14
00
1E
23
41
81
81
81
82
C4
78
ENDCHAR

STARTCHAR Otilde
ENCODING 213
SWIDTH 778 0
DWIDTH 9 0
BBX 8 12 0 0
BITMAP
1A
16
00
1E
23
41
81
81
81
82
C4
78
ENDCHAR

STARTCHAR Odieresis
ENCODING 214
SWIDTH 778 0
DWIDTH 9 0
BBX 8 11 0 0
BITMAP
0A
00
1E
23
41
81
81
81
82
C4
78
ENDCHAR

STARTCHAR multiply
ENCODING 215
SWIDTH 606 0
DWIDTH 7 0
BBX 5 5 1 1
BITMAP
88
50
20
50
88
ENDCHAR

STARTCHAR Oslash
ENCODING 216
SWIDTH 778 0
DWIDTH 9 0
BBX 9 10 0 0
BITMAP
0180
1F00
2300
4500
8900
9900
9100
A200
C400
F800
ENDCHAR

STARTCHAR Ugrave
ENCODING 217
SWIDTH 815 0
DWIDTH 10 0
BBX 9 12 1 0
BITMAP
1000
0800
0000
F380
6100
4100
4100
4200
8200
8200
C400
7800
ENDCHAR

STARTCHAR Uacute
ENCODING 218
SWIDTH 815 0
DWIDTH 10 0
BBX 9 12 1 0
BITMAP
0600
0800
0000
F380
6100
4100
4100
4200
8200
8200
C400
7800
ENDCHAR

STARTCHAR Ucircumflex
ENCODING 219
SWIDTH 815 0
DWIDTH 10 0
BBX 9 12 1 0
BITMAP
0C00
1400
0000
F380
6100
4100
4100
4200
8200
8200
C400
7800
ENDCHAR

STARTCHAR Udieresis
ENCODING 220
SWIDTH 815 0
DWIDTH 10 0
BBX 9 11 1 0
BITMAP
1400
0000
F380
6100
4100
4100
4200
8200
8200
C400
7800
ENDCHAR

STARTCHAR Yacute
ENCODING 221
SWIDTH 685 0
DWIDTH 8 0
BBX 9 12 0 0
BITMAP
0600
0800
0000
F780
2200
2400
2800
1000
1000
1000
3000
7800
ENDCHAR

STARTCHAR Thorn
ENCODING 222
SWIDTH 667 0
DWIDTH 8 0
BBX 8 9 0 0
BITMAP
3C
10
1E
31
21
23
3E
60
F0
ENDCHAR

STARTCHAR germandbls
ENCODING 223
SWIDTH 556 0
DWIDTH 7 0
BBX 7 12 0 -3
BITMAP
0E
12
12
1C
24
22
22
74
58
40
C0
80
ENDCHAR

STARTCHAR agrave
ENCODING 224
SWIDTH 574 0
DWIDTH 7 0
BBX 6 9 0 0
BITMAP
20
10
00
34
48
88
88
94
6C
ENDCHAR

STARTCHAR aacute
ENCODING 225
SWIDTH 574 0
DWIDTH 7 0
BBX 6 9 0 0
BITMAP
0C
10
00
34
48
88
88
94
6C
ENDCHAR

STARTCHAR acircumflex
ENCODING 226
SWIDTH 574 0
DWIDTH 7 0
BBX 6 9 0 0
BITMAP
18
28
04
34
48
88
88
94
6C
ENDCHAR

STARTCHAR atilde
ENCODING 227
SWIDTH 574 0
DWIDTH 7 0
BBX 6 9 0 0
BITMAP
34
2C
00
34
48
88
88
94
6C
ENDCHAR

STARTCHAR adieresis
ENCODING 228
SWIDTH 574 0
DWIDTH 7 0
BBX 6 8 0 0
BITMAP
14
00
34
48
88
88
94
6C
ENDCHAR

STARTCHAR aring
ENCODING 229
SWIDTH 574 0
DWIDTH 7 0
BBX 6 10 0 0
BITMAP
0C
14
18
00
34
48
88
88
94
6C
ENDCHAR

STARTCHAR ae
ENCODING 230
SWIDTH 722 0
DWIDTH 9 0
BBX 8 6 0 0
BITMAP
77
09
7F
88
99
EE
ENDCHAR

STARTCHAR ccedilla
ENCODING 231
SWIDTH 444 0
DWIDTH 5 0
BBX 5 9 0 -3
BITMAP
30
48
98
80
88
70
20
10
60
ENDCHAR

STARTCHAR egrave
ENCODING 232
SWIDTH 444 0
DWIDTH 5 0
BBX 5 9 0 0
BITMAP
20
10
00
38
48
B0
C0
88
70
ENDCHAR

STARTCHAR eacute
ENCODING 233
SWIDTH 444 0
DWIDTH 5 0
BBX 5 9 0 0
BITMAP
18
20
00
38
48
B0
C0
88
70
ENDCHAR

STARTCHAR ecircumflex
ENCODING 234
SWIDTH 444 0
DWIDTH 5 0
BBX 5 9 0 0
BITMAP
30
50
00
38
48
B0
C0
88
70
ENDCHAR

STARTCHAR edieresis
ENCODING 235
SWIDTH 444 0
DWIDTH 5 0
BBX 5 8 0 0
BITMAP
28
00
38
48
B0
C0
88
70
ENDCHAR

STARTCHAR igrave
ENCODING 236
SWIDTH 333 0
DWIDTH 4 0
BBX 3 9 0 0
BITMAP
40
20
00
C0
40
40
80
A0
C0
ENDCHAR

STARTCHAR iacute
ENCODING 237
SWIDTH 333 0
DWIDTH 4 0
BBX 4 9 0 0
BITMAP
30
40
00
C0
40
40
80
A0
C0
ENDCHAR

STARTCHAR icircumflex
ENCODING 238
SWIDTH 333 0
DWIDTH 4 0
BBX 4 9 0 0
BITMAP
60
A0
10
C0
40
40
80
A0
C0
ENDCHAR

STARTCHAR idieresis
ENCODING 239
SWIDTH 333 0
DWIDTH 4 0
BBX 4 8 0 0
BITMAP
50
00
C0
40
40
80
A0
C0
ENDCHAR

STARTCHAR eth
ENCODING 240
SWIDTH 500 0
DWIDTH 6 0
BBX 5 9 0 0
BITMAP
28
30
50
38
48
88
88
98
70
ENDCHAR

STARTCHAR ntilde
ENCODING 241
SWIDTH 611 0
DWIDTH 7 0
BBX 7 9 0 0
BITMAP
34
2C
00
F8
24
44
48
8A
8C
ENDCHAR

STARTCHAR ograve
ENCODING 242
SWIDTH 500 0
DWIDTH 6 0
BBX 5 9 0 0
BITMAP
20
10
00
30
48
88
88
90
60
ENDCHAR

STARTCHAR oacute
ENCODING 243
SWIDTH 500 0
DWIDTH 6 0
BBX 6 9 0 0
BITMAP
0C
10
00
30
48
88
88
90
60
ENDCHAR

STARTCHAR ocircumflex
ENCODING 244
SWIDTH 500 0
DWIDTH 6 0
BBX 6 9 0 0
BITMAP
18
28
04
30
48
88
88
90
60
ENDCHAR

STARTCHAR otilde
ENCODING 245
SWIDTH 500 0
DWIDTH 6 0
BBX 6 9 0 0
BITMAP
34
2C
00
30
48
88
88
90
60
ENDCHAR

STARTCHAR odieresis
ENCODING 246
SWIDTH 500 0
DWIDTH 6 0
BBX 5 8 0 0
BITMAP
28
00
30
48
88
88
90
60
ENDCHAR

STARTCHAR divide
ENCODING 247
SWIDTH 606 0
DWIDTH 7 0
BBX 5 5 1 1
BITMAP
20
00
F8
00
20
ENDCHAR

STARTCHAR oslash
ENCODING 248
SWIDTH 500 0
DWIDTH 6 0
BBX 5 8 0 -1
BITMAP
08
38
58
A8
A8
D0
60
80
ENDCHAR

STARTCHAR ugrave
ENCODING 249
SWIDTH 611 0
DWIDTH 7 0
BBX 6 9 0 0
BITMAP
20
10
00
CC
48
48
90
94
F8
ENDCHAR

STARTCHAR uacute
ENCODING 250
SWIDTH 611 0
DWIDTH 7 0
BBX 6 9 0 0
BITMAP
0C
10
00
CC
48
48
90
94
F8
ENDCHAR

STARTCHAR ucircumflex
ENCODING 251
SWIDTH 611 0
DWIDTH 7 0
BBX 6 9 0 0
BITMAP
18
28
00
CC
48
48
90
94
F8
ENDCHAR

STARTCHAR udieresis
ENCODING 252
SWIDTH 611 0
DWIDTH 7 0
BBX 6 8 0 0
BITMAP
28
00
CC
48
48
90
94
F8
ENDCHAR

STARTCHAR yacute
ENCODING 253
SWIDTH 500 0
DWIDTH 6 0
BBX 7 12 0 -3
BITMAP
06
08
00
44
24
14
14
18
18
10
10
E0
ENDCHAR

STARTCHAR thorn
ENCODING 254
SWIDTH 574 0
DWIDTH 7 0
BBX 7 12 0 -3
BITMAP
18
08
10
1E
12
22
22
26
3C
40
40
E0
ENDCHAR

STARTCHAR ydieresis
ENCODING 255
SWIDTH 500 0
DWIDTH 6 0
BBX 6 11 0 -3
BITMAP
14
00
44
24
14
14
18
18
10
10
E0
ENDCHAR
ENDFONT
